<svg xmlns="http://www.w3.org/2000/svg" viewBox="0 0 330.57 145.16"><g data-name="Слой 2"><path d="M87.85 31.75a3.78 3.78 0 11-3.7 3.86 3.78 3.78 0 013.7-3.86zm15.2-11.65a5.87 5.87 0 11-5.75 6 5.87 5.87 0 015.75-6zM122.6 9.11a7.79 7.79 0 11-7.63 8 7.78 7.78 0 017.63-7.95zm23.54-6.56a9.31 9.31 0 11-9.12 9.5 9.31 9.31 0 019.12-9.5zM173.45 0a11.42 11.42 0 11-11.19 11.66A11.42 11.42 0 01173.45 0zm31.96 2.68a12.76 12.76 0 11-12.5 13 12.76 12.76 0 0112.5-13zM236.88 15a14.75 14.75 0 11-14.44 15 14.75 14.75 0 0114.44-15zm9.74 98.55a3.76 3.76 0 113.69-3.84 3.76 3.76 0 01-3.69 3.84zm-15.13 11.59a5.84 5.84 0 115.72-6 5.84 5.84 0 01-5.72 6zM212 136.09a7.76 7.76 0 117.6-7.91 7.76 7.76 0 01-7.6 7.91zm-23.42 6.53a9.27 9.27 0 119.08-9.46 9.27 9.27 0 01-9.08 9.46zm-27.19 2.54a11.37 11.37 0 1111.14-11.6 11.37 11.37 0 01-11.14 11.6zm-31.82-2.67a12.7 12.7 0 1112.44-13 12.71 12.71 0 01-12.44 13zM98.23 130.2a14.68 14.68 0 1114.38-15 14.69 14.69 0 01-14.38 15zM9 54.22a1.47 1.47 0 00-1.37 1.16c-.41 1.83-.83 3.66-1.24 5.49A.87.87 0 007.28 62h21.37a.83.83 0 01.85 1c-.38 1.67-.75 3.34-1.13 5a1.41 1.41 0 01-1.31 1H11.34a1.53 1.53 0 00-1.4 1.16c-.28 1.23-.56 2.46-.83 3.68a.89.89 0 00.89 1.3h15.75a.83.83 0 01.84 1l-1.11 5a1.42 1.42 0 01-1.31 1H2.75a1.46 1.46 0 00-1.37 1.16L0 89.33a.87.87 0 00.85 1.16h21.46a30.45 30.45 0 006.13-.49 8.25 8.25 0 005.22-3 16.55 16.55 0 002.25-5.81c.67-3 1.33-6 2-9s1.35-6 2-9c.57-2.55.87-5.8-1.1-7.32-1.79-1.38-5.93-1.54-8.42-1.54zm66.62 36.27A1.53 1.53 0 0077 89.33l3.78-17q1.89-8.47 3.77-17a.9.9 0 00-.88-1.16H61.44c-2.42 0-6.12.2-8.49 1.59-2.55 1.49-3.65 4.35-4.21 6.84-.69 3.08-1.36 6.17-2.07 9.25s-1.41 6.17-2.1 9.25a1.39 1.39 0 01-1.28 1h-1.53a1.54 1.54 0 00-1.44 1.16c-.45 2-.89 4-1.34 6a.91.91 0 00.92 1.16h4c2.09 0 5.92-.2 7.72-1.91 1.65-1.56 2.66-5.45 3.1-7.43.67-3 1.36-6 2-9s1.34-6 2-9A1.38 1.38 0 0160 62h11.6a.83.83 0 01.82 1Q71 69.65 69.51 76.21t-2.92 13.12a.9.9 0 00.88 1.16zm42.25 0a1.54 1.54 0 001.44-1.16l3.75-17 3.75-17a.9.9 0 00-.92-1.16h-8.62a1.46 1.46 0 00-1.09.52c-3.09 3.45-6.14 6.9-9.19 10.35l-9.16 10.4a1.26 1.26 0 01-1.27.42.81.81 0 01-.53-1l2.16-9.73 2.16-9.74a.9.9 0 00-.88-1.16h-7.68a1.56 1.56 0 00-1.44 1.16q-1.87 8.49-3.77 17t-3.77 17a.91.91 0 00.92 1.16h8.7a1.48 1.48 0 001.09-.55l9.17-10.36c3-3.45 6.1-6.91 9.19-10.36a1.25 1.25 0 011.27-.42.83.83 0 01.53 1l-2.16 9.74q-1.08 4.88-2.15 9.74a.89.89 0 00.88 1.16zm42.23 0a1.53 1.53 0 001.4-1.16q1.86-8.49 3.73-17t3.73-17a.91.91 0 00-.89-1.16h-34.14a1.54 1.54 0 00-1.4 1.16l-3.75 17-3.75 17a.9.9 0 00.89 1.16h8.14a1.52 1.52 0 001.4-1.16q1.46-6.56 2.9-13.12t2.9-13.13a1.39 1.39 0 011.27-1H156a.81.81 0 01.81 1q-1.41 6.57-2.81 13.13t-2.89 13.12a.9.9 0 00.89 1.16zm38.76 0a1.52 1.52 0 001.39-1.16c.44-2 .87-4 1.31-6a.91.91 0 00-.89-1.16h-21.48a.81.81 0 01-.82-1l2-9 2-9a1.37 1.37 0 011.28-1H205a1.52 1.52 0 001.4-1.15l1.2-5.49a.91.91 0 00-.89-1.17h-21.39c-2.48 0-6.63.17-9 1.54-2.65 1.53-3.79 4.77-4.35 7.32l-2 9c-.66 3-1.33 6-2 9-.39 1.77-.81 4.2-.32 5.81.53 1.78 2.07 2.62 3.88 3a27.19 27.19 0 005.84.51zm42.87 0a1.53 1.53 0 001.43-1.16l3.69-17 3.69-17a.92.92 0 00-.93-1.17h-22.24c-2.46 0-6.12.21-8.48 1.59-2.55 1.49-3.67 4.36-4.21 6.85-.67 3.08-1.35 6.16-2 9.24s-1.35 6.16-2 9.25a1.35 1.35 0 01-1.27 1h-1.61a1.54 1.54 0 00-1.4 1.16c-.44 2-.87 4-1.31 6a.91.91 0 00.9 1.16h4c2.09 0 5.89-.2 7.71-1.91 1.65-1.56 2.63-5.46 3.06-7.43q1-4.53 2-9t2-9A1.35 1.35 0 01226 62h11.6a.84.84 0 01.85 1.06l-2.86 13.14q-1.44 6.57-2.86 13.13a.89.89 0 00.89 1.16zm37.39 0a1.52 1.52 0 001.39-1.16l1.29-6a.9.9 0 00-.89-1.16h-19.1a.81.81 0 01-.81-1l1.07-5a1.35 1.35 0 011.27-1h17.2A1.53 1.53 0 00282 74c.26-1.22.53-2.45.79-3.68a.91.91 0 00-.93-1.16h-17.22a.82.82 0 01-.82-1c.37-1.67.73-3.33 1.09-5a1.36 1.36 0 011.27-1.16h19.09a1.53 1.53 0 001.39-1.16q.58-2.75 1.19-5.49a.92.92 0 00-.9-1.17h-29.4a1.54 1.54 0 00-1.43 1.17q-1.83 8.49-3.68 17l-3.69 17a.92.92 0 00.93 1.16zm46.5 0a1.55 1.55 0 001.46-1.16l1.29-6a.94.94 0 00-1-1.16h-1.57a.83.83 0 01-.82-1l2.76-12.87q1.38-6.44 2.77-12.88a.92.92 0 00-.9-1.17H307.4c-2.45 0-6.28.19-8.69 1.55-2.61 1.46-3.72 4.38-4.27 6.89-.66 3.08-1.34 6.16-2 9.24s-1.3 6.16-2 9.24a1.37 1.37 0 01-1.27 1h-1.57a1.52 1.52 0 00-1.4 1.16l-1.29 6a.9.9 0 00.89 1.16zm-12.27-8.3h-11.94a.83.83 0 01-.82-1c.65-3 1.28-6 1.91-9s1.3-6 1.95-9a1.39 1.39 0 011.27-1.19h12a.81.81 0 01.82 1.05c-.65 3-1.29 6-1.94 9s-1.29 6-1.94 9a1.36 1.36 0 01-1.27 1z" fill="#fb973c" fill-rule="evenodd" data-name="Слой 1"/></g></svg>